<?xml version="1.0" encoding="UTF-8"?>
<!DOCTYPE svg PUBLIC "-//W3C//DTD SVG 1.1//EN" "http://www.w3.org/Graphics/SVG/1.1/DTD/svg11.dtd">
<svg xmlns="http://www.w3.org/2000/svg" version="1.1" width="1000px" height="1000px" style="shape-rendering:geometricPrecision; text-rendering:geometricPrecision; image-rendering:optimizeQuality; fill-rule:evenodd; clip-rule:evenodd" xmlns:xlink="http://www.w3.org/1999/xlink">
<g><path style="opacity:0.998" fill="#FF6F61" d="M 819.5,129.5 C 878.675,131.982 921.841,159.315 949,211.5C 971.345,265.748 964.679,316.081 929,362.5C 892.728,402.204 847.895,418.038 794.5,410C 735.294,396.46 698.127,360.293 683,301.5C 672.715,240.328 692.215,191.161 741.5,154C 765.285,138.459 791.285,130.292 819.5,129.5 Z M 869.5,183.5 C 879.876,182.542 885.876,187.209 887.5,197.5C 886.974,200.272 886.141,202.938 885,205.5C 852.617,241.095 820.117,276.595 787.5,312C 781.257,315.535 775.257,315.201 769.5,311C 754.971,296.805 740.804,282.305 727,267.5C 723.133,258.884 725.3,252.05 733.5,247C 739.343,245.676 744.676,246.676 749.5,250C 759.333,259.833 769.167,269.667 779,279.5C 807.5,248.333 836,217.167 864.5,186C 866.315,185.243 867.981,184.41 869.5,183.5 Z M 898.5,228.5 C 912.146,227.646 917.979,233.979 916,247.5C 883.572,284.598 850.405,321.098 816.5,357C 804.781,361.469 797.448,357.469 794.5,345C 795.072,341.616 796.239,338.449 798,335.5C 826.333,304.5 854.667,273.5 883,242.5C 887.788,237.202 892.955,232.535 898.5,228.5 Z"/></g>
<g><path style="opacity:0.499" fill="#4A90E2" d="M 110.5,204.5 C 294.999,203.5 479.666,203.167 664.5,203.5C 664.737,204.791 664.404,205.791 663.5,206.5C 479.503,204.501 295.17,203.835 110.5,204.5 Z"/></g>
<g><path style="opacity:1" fill="#4A90E2" d="M 110.5,204.5 C 295.17,203.835 479.503,204.501 663.5,206.5C 640.039,272.577 650.706,332.411 695.5,386C 635.473,446.361 575.139,506.361 514.5,566C 482.659,588.377 449.993,589.71 416.5,570C 413.5,567.667 410.5,565.333 407.5,563C 294.139,449.306 180.473,335.973 66.5,223C 79.1071,212.071 93.7737,205.905 110.5,204.5 Z"/></g>
<g><path style="opacity:1" fill="#4A90E2" d="M 47.5,244.5 C 145.173,341.839 242.839,439.173 340.5,536.5C 243.18,633.653 145.68,730.653 48,827.5C 40.9218,815.859 37.2551,803.193 37,789.5C 36.3333,620.833 36.3333,452.167 37,283.5C 37.5528,269.68 41.0528,256.68 47.5,244.5 Z"/></g>
<g><path style="opacity:0.998" fill="#4A90E2" d="M 715.5,405.5 C 769.165,443.417 826.832,450.75 888.5,427.5C 888.667,550.167 888.5,672.834 888,795.5C 886.918,807.08 883.251,817.747 877,827.5C 779.347,731.014 682.18,634.014 585.5,536.5C 628.854,492.812 672.188,449.146 715.5,405.5 Z"/></g>
<g><path style="opacity:1" fill="#4A90E2" d="M 360.5,556.5 C 370.298,565.798 379.965,575.298 389.5,585C 429.301,616.444 471.968,620.777 517.5,598C 522.672,594.915 527.672,591.581 532.5,588C 543.029,577.137 553.863,566.637 565,556.5C 662.361,654.194 760.027,751.527 858,848.5C 858.667,849.167 858.667,849.833 858,850.5C 843.63,862.181 827.13,868.348 808.5,869C 578.167,869.667 347.833,869.667 117.5,869C 98.2364,868.526 81.2364,862.193 66.5,850C 164.395,751.938 262.395,654.105 360.5,556.5 Z"/></g>
</svg>
