<?xml version="1.0" encoding="UTF-8"?>
<!DOCTYPE svg PUBLIC "-//W3C//DTD SVG 1.1//EN" "http://www.w3.org/Graphics/SVG/1.1/DTD/svg11.dtd">
<svg xmlns="http://www.w3.org/2000/svg" version="1.1" width="1000px" height="1000px" style="shape-rendering:geometricPrecision; text-rendering:geometricPrecision; image-rendering:optimizeQuality; fill-rule:evenodd; clip-rule:evenodd" xmlns:xlink="http://www.w3.org/1999/xlink">
<g><path style="opacity:0.992" fill="#fccb14" d="M 585.5,113.5 C 583.143,113.337 580.81,113.503 578.5,114C 559.291,129.381 539.958,144.548 520.5,159.5C 515.167,159.5 509.833,159.5 504.5,159.5C 492.674,158.34 480.674,158.174 468.5,159C 460.224,159.229 452.224,160.396 444.5,162.5C 432.593,163.06 420.926,165.06 409.5,168.5C 408.584,168.457 407.917,168.124 407.5,167.5C 439.138,146.344 470.805,125.177 502.5,104C 503.252,103.329 503.586,102.496 503.5,101.5C 524.596,103.096 545.596,105.263 566.5,108C 578.803,97.5181 591.47,87.5181 604.5,78C 613.894,76.3953 617.394,80.2287 615,89.5C 605.583,98.0913 595.749,106.091 585.5,113.5 Z"/></g>
<g><path style="opacity:0.993" fill="#f35eab" d="M 503.5,101.5 C 503.586,102.496 503.252,103.329 502.5,104C 470.805,125.177 439.138,146.344 407.5,167.5C 339.179,186.079 281.012,221.412 233,273.5C 225.939,282.051 218.773,290.384 211.5,298.5C 178.529,320.657 145.529,342.823 112.5,365C 110.975,366.009 109.308,366.509 107.5,366.5C 113.385,350.058 120.385,334.058 128.5,318.5C 127.998,317.479 127.332,317.312 126.5,318C 121.699,323.333 116.032,327.167 109.5,329.5C 101.598,328.211 99.4316,323.877 103,316.5C 121.02,300.979 139.187,285.646 157.5,270.5C 234.042,166.877 337.042,110.711 466.5,102C 478.829,101.5 491.162,101.333 503.5,101.5 Z"/></g>
<g><path style="opacity:0.991" fill="#1f6cad" d="M 585.5,113.5 C 617.675,121.915 648.341,134.248 677.5,150.5C 660.167,162.5 642.833,174.5 625.5,186.5C 603.559,177.634 580.892,170.967 557.5,166.5C 554.146,164.742 550.479,163.742 546.5,163.5C 537.53,162.421 528.53,161.587 519.5,161C 520.056,160.617 520.389,160.117 520.5,159.5C 539.958,144.548 559.291,129.381 578.5,114C 580.81,113.503 583.143,113.337 585.5,113.5 Z"/></g>
<g><path style="opacity:0.99" fill="#f25dab" d="M 719.5,177.5 C 704.809,189.197 690.142,200.864 675.5,212.5C 658.994,203.249 642.327,194.582 625.5,186.5C 642.833,174.5 660.167,162.5 677.5,150.5C 685.877,154.71 693.877,159.543 701.5,165C 702.5,165.667 703.5,165.667 704.5,165C 725.12,149.381 745.454,133.381 765.5,117C 772.781,112.641 777.781,114.475 780.5,122.5C 779.902,123.795 779.402,125.128 779,126.5C 759.601,143.069 739.767,159.069 719.5,174.5C 718.438,175.425 718.438,176.425 719.5,177.5 Z"/></g>
<g><path style="opacity:1" fill="#da6e17" d="M 504.5,159.5 C 484.422,159.126 464.422,160.126 444.5,162.5C 452.224,160.396 460.224,159.229 468.5,159C 480.674,158.174 492.674,158.34 504.5,159.5 Z"/></g>
<g><path style="opacity:1" fill="#b9131b" d="M 504.5,159.5 C 509.833,159.5 515.167,159.5 520.5,159.5C 520.389,160.117 520.056,160.617 519.5,161C 528.53,161.587 537.53,162.421 546.5,163.5C 549.854,165.258 553.521,166.258 557.5,166.5C 580.892,170.967 603.559,177.634 625.5,186.5C 642.327,194.582 658.994,203.249 675.5,212.5C 695.298,225.951 713.965,240.951 731.5,257.5C 754.615,280.604 774.282,306.27 790.5,334.5C 810.549,368.971 823.882,405.971 830.5,445.5C 830.5,446.5 830.5,447.5 830.5,448.5C 831.198,458.054 832.532,467.388 834.5,476.5C 834.5,477.5 834.5,478.5 834.5,479.5C 834.627,497.845 834.293,516.178 833.5,534.5C 830.247,569.77 821.914,603.77 808.5,636.5C 761.686,742.316 682.352,809.982 570.5,839.5C 567.061,839.788 563.728,840.454 560.5,841.5C 532.457,847.148 504.123,849.481 475.5,848.5C 449.642,848.182 424.309,844.515 399.5,837.5C 360,826.918 323.667,809.584 290.5,785.5C 254.302,759.305 223.968,727.638 199.5,690.5C 191.262,677.031 183.762,663.031 177,648.5C 172.092,635.91 166.925,623.577 161.5,611.5C 157.151,592.774 152.817,574.107 148.5,555.5C 147.143,539.189 146.143,522.856 145.5,506.5C 145.113,487.042 146.446,467.709 149.5,448.5C 158.025,393.804 178.859,344.47 212,300.5C 212.692,299.563 212.525,298.897 211.5,298.5C 218.773,290.384 225.939,282.051 233,273.5C 281.012,221.412 339.179,186.079 407.5,167.5C 407.917,168.124 408.584,168.457 409.5,168.5C 420.926,165.06 432.593,163.06 444.5,162.5C 464.422,160.126 484.422,159.126 504.5,159.5 Z"/></g>
<g><path style="opacity:1" fill="#783c5b" d="M 546.5,163.5 C 550.479,163.742 554.146,164.742 557.5,166.5C 553.521,166.258 549.854,165.258 546.5,163.5 Z"/></g>
<g><path style="opacity:0.996" fill="#29a9bc" d="M 719.5,177.5 C 738.975,190.965 756.975,206.299 773.5,223.5C 759.21,234.454 745.21,245.788 731.5,257.5C 713.965,240.951 695.298,225.951 675.5,212.5C 690.142,200.864 704.809,189.197 719.5,177.5 Z"/></g>
<g><path style="opacity:0.99" fill="#1e6cae" d="M 773.5,223.5 C 812.74,263.123 842.407,309.123 862.5,361.5C 862.294,363.549 861.461,363.883 860,362.5C 852.138,340.777 842.138,320.11 830,300.5C 817.248,312.426 804.081,323.76 790.5,334.5C 774.282,306.27 754.615,280.604 731.5,257.5C 745.21,245.788 759.21,234.454 773.5,223.5 Z"/></g>
<g><path style="opacity:0.996" fill="#f25eab" d="M 862.5,361.5 C 872.802,352.341 883.135,343.174 893.5,334C 904.036,331.203 907.87,335.036 905,345.5C 893.188,356.633 881.355,367.633 869.5,378.5C 867.404,377.396 866.404,378.23 866.5,381C 868.531,387.429 870.364,393.929 872,400.5C 872.703,402.929 872.537,405.262 871.5,407.5C 857.833,420.167 844.167,432.833 830.5,445.5C 823.882,405.971 810.549,368.971 790.5,334.5C 804.081,323.76 817.248,312.426 830,300.5C 842.138,320.11 852.138,340.777 860,362.5C 861.461,363.883 862.294,363.549 862.5,361.5 Z"/></g>
<g><path style="opacity:0.991" fill="#fccb14" d="M 211.5,298.5 C 212.525,298.897 212.692,299.563 212,300.5C 178.859,344.47 158.025,393.804 149.5,448.5C 127.541,465.125 105.874,482.125 84.5,499.5C 83.7563,453.865 91.4229,409.532 107.5,366.5C 109.308,366.509 110.975,366.009 112.5,365C 145.529,342.823 178.529,320.657 211.5,298.5 Z"/></g>
<g><path style="opacity:1" fill="#fdfafa" d="M 444.5,432.5 C 444.403,424.809 444.737,417.142 445.5,409.5C 448.168,392.499 457.501,380.832 473.5,374.5C 480.033,372.794 486.7,372.128 493.5,372.5C 501.345,373.091 507.345,376.758 511.5,383.5C 513.422,381.997 514.588,379.997 515,377.5C 521.903,372.282 528.903,372.282 536,377.5C 537.022,379.702 537.522,382.035 537.5,384.5C 535.653,397.222 533.486,409.889 531,422.5C 530.333,427.167 530.333,431.833 531,436.5C 532.556,442.529 536.39,444.696 542.5,443C 548.425,438.992 552.258,433.492 554,426.5C 556.917,413.245 557.25,399.911 555,386.5C 546.893,363.02 530.393,350.52 505.5,349C 476.318,345.048 452.818,354.548 435,377.5C 425.264,395.306 421.93,414.306 425,434.5C 429.003,461.17 443.836,478.67 469.5,487C 493.119,491.145 515.619,487.978 537,477.5C 546.704,479.985 549.037,485.651 544,494.5C 538.313,499.428 531.813,502.928 524.5,505C 499.603,511.544 474.937,510.877 450.5,503C 417.201,486.273 400.201,459.106 399.5,421.5C 399.013,384.284 414.679,356.451 446.5,338C 479.654,323.331 512.321,323.997 544.5,340C 562.235,351.971 573.069,368.471 577,389.5C 577.853,402.538 577.52,415.538 576,428.5C 573.422,439.413 567.922,448.58 559.5,456C 547.663,463.866 534.996,465.532 521.5,461C 520.122,459.287 518.455,457.953 516.5,457C 514.033,453.884 511.699,450.718 509.5,447.5C 495.845,463.912 479.178,467.746 459.5,459C 451.481,451.787 446.481,442.954 444.5,432.5 Z"/></g>
<g><path style="opacity:1" fill="#e5a3a6" d="M 493.5,372.5 C 486.7,372.128 480.033,372.794 473.5,374.5C 474.681,372.933 476.347,372.099 478.5,372C 483.684,371.184 488.684,371.35 493.5,372.5 Z"/></g>
<g><path style="opacity:1" fill="#bb1b20" d="M 486.5,393.5 C 500.033,391.378 506.7,397.045 506.5,410.5C 507.162,422.664 502.829,432.498 493.5,440C 477.972,443.485 470.639,437.152 471.5,421C 471.61,409.082 476.61,399.916 486.5,393.5 Z"/></g>
<g><path style="opacity:0.821" fill="#256eac" d="M 869.5,378.5 C 879.292,409.462 885.626,441.128 888.5,473.5C 887.853,475.141 886.853,476.474 885.5,477.5C 883.865,473.427 882.865,469.094 882.5,464.5C 882.508,456.568 881.508,448.902 879.5,441.5C 878.337,430.519 876.337,419.685 873.5,409C 873.164,407.97 872.497,407.47 871.5,407.5C 872.537,405.262 872.703,402.929 872,400.5C 870.364,393.929 868.531,387.429 866.5,381C 866.404,378.23 867.404,377.396 869.5,378.5 Z"/></g>
<g><path style="opacity:1" fill="#fdf9f9" d="M 306.5,406.5 C 329.167,406.5 351.833,406.5 374.5,406.5C 374.5,411.167 374.5,415.833 374.5,420.5C 354.5,420.5 334.5,420.5 314.5,420.5C 314.263,421.791 314.596,422.791 315.5,423.5C 315.833,423.5 316.167,423.5 316.5,423.5C 370.604,472.432 424.604,521.598 478.5,571C 483.765,574.55 488.765,574.217 493.5,570C 549.744,520.583 606.411,471.75 663.5,423.5C 664.167,423.5 664.5,423.167 664.5,422.5C 665.043,422.44 665.376,422.107 665.5,421.5C 644.511,420.5 623.511,420.167 602.5,420.5C 602.5,415.833 602.5,411.167 602.5,406.5C 626.167,406.5 649.833,406.5 673.5,406.5C 678.11,406.971 682.11,408.804 685.5,412C 687.808,414.128 689.474,416.628 690.5,419.5C 691.489,500.478 691.822,581.478 691.5,662.5C 688.775,673.386 681.775,679.553 670.5,681C 549.167,681.667 427.833,681.667 306.5,681C 296.974,678.14 290.807,671.974 288,662.5C 287.333,583.167 287.333,503.833 288,424.5C 290.047,414.286 296.214,408.286 306.5,406.5 Z"/></g>
<g><path style="opacity:0.995" fill="#fbcb15" d="M 871.5,407.5 C 872.497,407.47 873.164,407.97 873.5,409C 876.337,419.685 878.337,430.519 879.5,441.5C 879.866,449.385 880.866,457.051 882.5,464.5C 882.5,469.167 882.5,473.833 882.5,478.5C 883.791,478.737 884.791,478.404 885.5,477.5C 886.853,476.474 887.853,475.141 888.5,473.5C 896.083,467.082 904.083,461.249 912.5,456C 921.272,455.901 924.105,460.067 921,468.5C 910.625,477.047 900.125,485.381 889.5,493.5C 887.983,493.511 886.816,494.177 886,495.5C 885.798,493.744 885.298,492.078 884.5,490.5C 868.136,505.532 851.469,520.199 834.5,534.5C 835.692,516.007 835.692,497.674 834.5,479.5C 834.5,478.5 834.5,477.5 834.5,476.5C 833.988,466.918 832.655,457.584 830.5,448.5C 830.5,447.5 830.5,446.5 830.5,445.5C 844.167,432.833 857.833,420.167 871.5,407.5 Z"/></g>
<g><path style="opacity:1" fill="#d2666a" d="M 445.5,409.5 C 444.737,417.142 444.403,424.809 444.5,432.5C 443.346,426.013 443.179,419.346 444,412.5C 444.232,411.263 444.732,410.263 445.5,409.5 Z"/></g>
<g><path style="opacity:1" fill="#e8b0b3" d="M 306.5,406.5 C 329.327,405.502 352.327,405.169 375.5,405.5C 375.5,410.833 375.5,416.167 375.5,421.5C 355.139,420.845 335.139,421.512 315.5,423.5C 314.596,422.791 314.263,421.791 314.5,420.5C 334.5,420.5 354.5,420.5 374.5,420.5C 374.5,415.833 374.5,411.167 374.5,406.5C 351.833,406.5 329.167,406.5 306.5,406.5 Z"/></g>
<g><path style="opacity:1" fill="#e7acaf" d="M 673.5,406.5 C 649.833,406.5 626.167,406.5 602.5,406.5C 602.5,411.167 602.5,415.833 602.5,420.5C 623.511,420.167 644.511,420.5 665.5,421.5C 665.376,422.107 665.043,422.44 664.5,422.5C 644.007,421.503 623.34,421.169 602.5,421.5C 601.512,416.36 601.179,411.026 601.5,405.5C 625.672,405.169 649.672,405.502 673.5,406.5 Z"/></g>
<g><path style="opacity:1" fill="#c74148" d="M 375.5,421.5 C 355.833,422.167 336.167,422.833 316.5,423.5C 316.167,423.5 315.833,423.5 315.5,423.5C 335.139,421.512 355.139,420.845 375.5,421.5 Z"/></g>
<g><path style="opacity:1" fill="#c74249" d="M 602.5,421.5 C 623.34,421.169 644.007,421.503 664.5,422.5C 664.5,423.167 664.167,423.5 663.5,423.5C 643.167,422.833 622.833,422.167 602.5,421.5 Z"/></g>
<g><path style="opacity:1" fill="#f2d6d8" d="M 690.5,419.5 C 691.268,420.263 691.768,421.263 692,422.5C 692.832,502.668 692.666,582.668 691.5,662.5C 691.822,581.478 691.489,500.478 690.5,419.5 Z"/></g>
<g><path style="opacity:1" fill="#dc878c" d="M 675.5,433.5 C 675.56,432.957 675.893,432.624 676.5,432.5C 677.833,505.5 677.833,578.5 676.5,651.5C 675.893,651.376 675.56,651.043 675.5,650.5C 676.833,578.167 676.833,505.833 675.5,433.5 Z"/></g>
<g><path style="opacity:1" fill="#bf262f" d="M 675.5,433.5 C 676.833,505.833 676.833,578.167 675.5,650.5C 675.5,650.167 675.5,649.833 675.5,649.5C 675.667,578.166 675.5,506.833 675,435.5C 673.871,437.141 672.371,438.141 670.5,438.5C 671.833,436.5 673.5,434.833 675.5,433.5 Z"/></g>
<g><path style="opacity:1" fill="#b9131b" d="M 303.5,433.5 C 351.437,475.768 398.771,518.768 445.5,562.5C 398.25,591.041 351.083,619.708 304,648.5C 303.5,576.834 303.333,505.167 303.5,433.5 Z"/></g>
<g><path style="opacity:1" fill="#b9141c" d="M 675.5,649.5 C 627.07,620.92 578.737,592.087 530.5,563C 529.643,562.311 528.977,561.478 528.5,560.5C 575.553,519.443 622.886,478.776 670.5,438.5C 672.371,438.141 673.871,437.141 675,435.5C 675.5,506.833 675.667,578.166 675.5,649.5 Z"/></g>
<g><path style="opacity:1" fill="#beb142" d="M 879.5,441.5 C 881.508,448.902 882.508,456.568 882.5,464.5C 880.866,457.051 879.866,449.385 879.5,441.5 Z"/></g>
<g><path style="opacity:0.997" fill="#216cad" d="M 149.5,448.5 C 146.446,467.709 145.113,487.042 145.5,506.5C 144.833,506.5 144.5,506.833 144.5,507.5C 125.138,520.177 105.805,532.844 86.5,545.5C 84.7942,530.272 84.1275,514.938 84.5,499.5C 105.874,482.125 127.541,465.125 149.5,448.5 Z"/></g>
<g><path style="opacity:1" fill="#d66318" d="M 830.5,448.5 C 832.655,457.584 833.988,466.918 834.5,476.5C 832.532,467.388 831.198,458.054 830.5,448.5 Z"/></g>
<g><path style="opacity:1" fill="#b8af44" d="M 882.5,464.5 C 882.865,469.094 883.865,473.427 885.5,477.5C 884.791,478.404 883.791,478.737 882.5,478.5C 882.5,473.833 882.5,469.167 882.5,464.5 Z"/></g>
<g><path style="opacity:0.987" fill="#1f6cad" d="M 889.5,493.5 C 890.581,534.186 885.914,574.186 875.5,613.5C 873.646,616.871 871.146,619.871 868,622.5C 867.833,621.833 867.667,621.167 867.5,620.5C 871.474,607.602 874.974,594.602 878,581.5C 878.798,579.741 878.631,578.074 877.5,576.5C 854.378,596.64 831.378,616.64 808.5,636.5C 821.914,603.77 830.247,569.77 833.5,534.5C 833.833,534.5 834.167,534.5 834.5,534.5C 851.469,520.199 868.136,505.532 884.5,490.5C 885.298,492.078 885.798,493.744 886,495.5C 886.816,494.177 887.983,493.511 889.5,493.5 Z"/></g>
<g><path style="opacity:1" fill="#d86917" d="M 834.5,479.5 C 835.692,497.674 835.692,516.007 834.5,534.5C 834.167,534.5 833.833,534.5 833.5,534.5C 834.293,516.178 834.627,497.845 834.5,479.5 Z"/></g>
<g><path style="opacity:0.992" fill="#f35dab" d="M 144.5,507.5 C 144.396,523.771 145.73,539.771 148.5,555.5C 152.817,574.107 157.151,592.774 161.5,611.5C 145.349,624.741 129.016,637.741 112.5,650.5C 110.399,646.39 108.566,642.056 107,637.5C 100.5,642.667 94,647.833 87.5,653C 77.8745,653.71 74.7078,649.543 78,640.5C 85.9595,633.777 93.7929,626.943 101.5,620C 93.7432,595.716 88.7432,570.882 86.5,545.5C 105.805,532.844 125.138,520.177 144.5,507.5 Z"/></g>
<g><path style="opacity:1" fill="#e0457c" d="M 145.5,506.5 C 146.143,522.856 147.143,539.189 148.5,555.5C 145.73,539.771 144.396,523.771 144.5,507.5C 144.5,506.833 144.833,506.5 145.5,506.5 Z"/></g>
<g><path style="opacity:1" fill="#b9141c" d="M 666.5,663.5 C 547.5,664.833 428.5,664.833 309.5,663.5C 358.937,633.274 408.604,603.274 458.5,573.5C 464.167,580.005 470.833,585.172 478.5,589C 485.521,590.194 492.187,589.194 498.5,586C 503.761,580.897 509.427,576.397 515.5,572.5C 565.953,602.649 616.286,632.983 666.5,663.5 Z"/></g>
<g><path style="opacity:0.997" fill="#27a9bc" d="M 875.5,613.5 C 886.438,604.349 897.438,595.183 908.5,586C 917.981,584.478 921.481,588.312 919,597.5C 900.987,613.68 882.821,629.68 864.5,645.5C 861.9,646.919 859.4,648.585 857,650.5C 810.619,759.547 732.119,835.38 621.5,878C 583.375,891.965 544.042,899.131 503.5,899.5C 524.698,880.136 546.365,861.303 568.5,843C 569.823,842.184 570.489,841.017 570.5,839.5C 682.352,809.982 761.686,742.316 808.5,636.5C 831.378,616.64 854.378,596.64 877.5,576.5C 878.631,578.074 878.798,579.741 878,581.5C 874.974,594.602 871.474,607.602 867.5,620.5C 867.667,621.167 867.833,621.833 868,622.5C 871.146,619.871 873.646,616.871 875.5,613.5 Z"/></g>
<g><path style="opacity:0.985" fill="#28a9bd" d="M 161.5,611.5 C 166.925,623.577 172.092,635.91 177,648.5C 183.762,663.031 191.262,677.031 199.5,690.5C 184.75,703.586 169.417,715.919 153.5,727.5C 149.756,721.687 145.756,716.02 141.5,710.5C 130.019,720.147 118.686,729.98 107.5,740C 103.177,743.248 99.0103,743.082 95,739.5C 93,736.167 93,732.833 95,729.5C 107.833,718 120.667,706.5 133.5,695C 125.011,680.856 118.011,666.023 112.5,650.5C 129.016,637.741 145.349,624.741 161.5,611.5 Z"/></g>
<g><path style="opacity:0.955" fill="#1c6eae" d="M 864.5,645.5 C 820.805,758.695 742.472,837.528 629.5,882C 545.045,912.268 459.711,915.101 373.5,890.5C 373.559,888.278 374.725,887.278 377,887.5C 388.683,890.879 400.517,893.546 412.5,895.5C 413.946,896.94 415.779,897.607 418,897.5C 419.385,897.486 420.551,897.152 421.5,896.5C 439.5,880.833 457.5,865.167 475.5,849.5C 503.773,850.569 531.773,848.402 559.5,843C 560.056,842.617 560.389,842.117 560.5,841.5C 563.728,840.454 567.061,839.788 570.5,839.5C 570.489,841.017 569.823,842.184 568.5,843C 546.365,861.303 524.698,880.136 503.5,899.5C 544.042,899.131 583.375,891.965 621.5,878C 732.119,835.38 810.619,759.547 857,650.5C 859.4,648.585 861.9,646.919 864.5,645.5 Z"/></g>
<g><path style="opacity:1" fill="#ce5b61" d="M 309.5,663.5 C 428.5,664.833 547.5,664.833 666.5,663.5C 667.167,663.5 667.833,663.5 668.5,663.5C 549.171,665.498 429.505,666.165 309.5,665.5C 308.167,664.833 308.167,664.167 309.5,663.5 Z"/></g>
<g><path style="opacity:1" fill="#f0d0d1" d="M 668.5,663.5 C 669.404,664.209 669.737,665.209 669.5,666.5C 549.332,666.833 429.332,666.5 309.5,665.5C 429.505,666.165 549.171,665.498 668.5,663.5 Z"/></g>
<g><path style="opacity:0.985" fill="#1e6cae" d="M 199.5,690.5 C 223.968,727.638 254.302,759.305 290.5,785.5C 290.489,787.017 289.823,788.184 288.5,789C 275.667,800.5 262.833,812 250,823.5C 249.333,824.167 249.333,824.833 250,825.5C 281.661,848.914 316.161,866.914 353.5,879.5C 354.974,880.675 356.64,881.675 358.5,882.5C 357.423,883.705 356.09,884.372 354.5,884.5C 311.721,869.285 272.721,847.618 237.5,819.5C 212.351,841.481 187.351,863.648 162.5,886C 152.431,887.268 148.931,883.102 152,873.5C 176.167,852 200.333,830.5 224.5,809C 196.929,784.95 173.263,757.783 153.5,727.5C 169.417,715.919 184.75,703.586 199.5,690.5 Z"/></g>
<g><path style="opacity:1" fill="#f35dab" d="M 290.5,785.5 C 323.667,809.584 360,826.918 399.5,837.5C 384.492,851.841 369.159,865.841 353.5,879.5C 316.161,866.914 281.661,848.914 250,825.5C 249.333,824.833 249.333,824.167 250,823.5C 262.833,812 275.667,800.5 288.5,789C 289.823,788.184 290.489,787.017 290.5,785.5 Z"/></g>
<g><path style="opacity:0.993" fill="#fbcb16" d="M 399.5,837.5 C 424.309,844.515 449.642,848.182 475.5,848.5C 475.5,848.833 475.5,849.167 475.5,849.5C 457.5,865.167 439.5,880.833 421.5,896.5C 418.482,896.296 415.482,895.963 412.5,895.5C 400.517,893.546 388.683,890.879 377,887.5C 374.725,887.278 373.559,888.278 373.5,890.5C 362.532,900.326 351.532,910.159 340.5,920C 333.376,923.845 328.71,921.845 326.5,914C 326.625,912.373 327.125,910.873 328,909.5C 337.031,901.3 345.864,892.967 354.5,884.5C 356.09,884.372 357.423,883.705 358.5,882.5C 356.64,881.675 354.974,880.675 353.5,879.5C 369.159,865.841 384.492,851.841 399.5,837.5 Z"/></g>
<g><path style="opacity:1" fill="#66476e" d="M 560.5,841.5 C 560.389,842.117 560.056,842.617 559.5,843C 531.773,848.402 503.773,850.569 475.5,849.5C 475.5,849.167 475.5,848.833 475.5,848.5C 504.123,849.481 532.457,847.148 560.5,841.5 Z"/></g>
<g><path style="opacity:1" fill="#84976a" d="M 412.5,895.5 C 415.482,895.963 418.482,896.296 421.5,896.5C 420.551,897.152 419.385,897.486 418,897.5C 415.779,897.607 413.946,896.94 412.5,895.5 Z"/></g>
</svg>
